<?xml version="1.0" standalone="no"?>
<!DOCTYPE svg PUBLIC "-//W3C//DTD SVG 20010904//EN"
 "http://www.w3.org/TR/2001/REC-SVG-20010904/DTD/svg10.dtd">
<svg version="1.0" xmlns="http://www.w3.org/2000/svg"
 width="600.000000pt" height="600.000000pt" viewBox="0 0 600.000000 600.000000"
 preserveAspectRatio="xMidYMid meet">
<metadata>
Created by potrace 1.14, written by Peter Selinger 2001-2017
</metadata>
<g transform="translate(0.000000,600.000000) scale(0.100000,-0.100000)"
fill="#000000" stroke="none">
<path d="M610 4470 c-5 -3 -9 -110 -9 -238 l1 -232 56 0 c32 -1 225 -1 430 -1
l372 -1 0 -221 c0 -122 0 -655 1 -1184 l0 -963 293 0 292 0 -1 1173 c0 644 1
1177 3 1184 3 9 101 12 385 12 210 0 405 0 433 0 l51 1 -2 233 c-1 127 -3 234
-3 237 -3 7 -2292 6 -2302 0z"/>
<path d="M3083 4473 c-9 -3 -9 -460 0 -469 3 -3 196 -6 430 -6 l424 0 1 -1167
c0 -641 1 -1174 1 -1184 1 -16 20 -17 293 -15 l292 3 1 1180 0 1180 415 2
c228 1 424 2 435 2 19 1 20 8 20 236 0 151 -3 235 -10 236 -22 2 -2296 4
-2302 2z"/>
</g>
</svg>
